<svg xmlns="http://www.w3.org/2000/svg" viewBox="0 0 24 24" fill="currentColor" stroke="currentColor"><path d="M11.25 17.25a6 6 0 1 0 12 0 6 6 0 1 0-12 0Zm6 3v-3" fill="none" stroke-linecap="round" stroke-linejoin="round" stroke-width="1.5"/><path d="M17.25 14.311a.375.375 0 1 0 .375.375.375.375 0 0 0-.375-.375M3.75 6.75h10.5m-10.5 4.5h6m-6 4.5H7.5m0 4.5H2.25a1.5 1.5 0 0 1-1.5-1.5V2.25a1.5 1.5 0 0 1 1.5-1.5h10.629a1.5 1.5 0 0 1 1.06.439l2.872 2.872a1.5 1.5 0 0 1 .439 1.06V7.5" fill="none" stroke-linecap="round" stroke-linejoin="round" stroke-width="1.5"/></svg>