<svg xmlns="http://www.w3.org/2000/svg" viewBox="0 0 24 24" fill="currentColor" stroke="currentColor"><path d="M8.25 19.75h-3a1.5 1.5 0 0 1-1.5-1.5v-7.5m-3-1.5 8.781-7.43a1.5 1.5 0 0 1 1.938 0l7.279 6.159M15.75 1.75h3v3m0 9h-2.033a1.342 1.342 0 0 0-.5 2.587l2.064.826a1.342 1.342 0 0 1-.5 2.587H15.75m1.5-6V13m0 7.5v-.75" fill="none" stroke-linecap="round" stroke-linejoin="round" stroke-width="1.5"/><path d="M11.25 16.75a6 6 0 1 0 12 0 6 6 0 1 0-12 0Z" fill="none" stroke-linecap="round" stroke-linejoin="round" stroke-width="1.5"/></svg>